<svg width="210" height="209" viewBox="0 0 210 209" fill="none" xmlns="http://www.w3.org/2000/svg">
<path fill-rule="evenodd" clip-rule="evenodd" d="M68.6775 55.1528C79.7064 55.1528 89.4885 60.5957 95.5956 68.9939C99.5125 74.3808 101.909 80.9841 102.188 88.1472V89.3804C102.188 96.36 100.162 102.865 96.649 108.275L67.8951 153.086C67.59 153.561 67.0715 153.847 66.515 153.847H43.7035C42.6052 153.847 41.9463 152.602 42.5481 151.663L61.1188 122.723C46.2535 119.221 35.1667 105.627 35.1667 89.3804L35.1976 88.1472C35.4451 81.0028 37.8313 74.4152 41.7305 69.0364C47.8353 60.6143 57.6305 55.1528 68.6775 55.1528ZM68.6775 100.691C72.6909 100.691 76.2424 98.7126 78.4788 95.6683L79.4143 94.2104C80.383 92.4185 80.9371 90.3607 80.9362 88.1472C80.9245 81.2422 75.4412 75.6479 68.6775 75.6479C61.9138 75.6479 56.431 81.2422 56.4179 88.1692C56.4179 95.0851 61.9068 100.691 68.6775 100.691Z" fill="white"/>
<path fill-rule="evenodd" clip-rule="evenodd" d="M167.907 68.9939C161.8 60.5957 152.018 55.1528 140.989 55.1528C129.942 55.1528 120.146 60.6143 114.042 69.0364C110.143 74.4152 107.757 81.0028 107.509 88.1472L107.478 89.3804C107.478 105.627 118.565 119.221 133.43 122.723L114.86 151.663C114.258 152.602 114.917 153.847 116.015 153.847H138.827C139.383 153.847 139.901 153.561 140.206 153.086L168.96 108.275C172.473 102.865 174.5 96.36 174.5 89.3804V88.1472C174.221 80.9841 171.824 74.3808 167.907 68.9939ZM140.989 100.691C145.002 100.691 148.554 98.7126 150.79 95.6683L151.726 94.2104C152.694 92.4185 153.249 90.3607 153.248 88.1472C153.236 81.2422 147.753 75.6479 140.989 75.6479C134.225 75.6479 128.743 81.2422 128.729 88.1692C128.729 95.0852 134.218 100.691 140.989 100.691Z" fill="white"/>
</svg>
